<svg width="22" height="24" viewBox="0 0 22 24" fill="none" xmlns="http://www.w3.org/2000/svg">
<mask id="path-1-inside-1_64_70" fill="white">
<path fill-rule="evenodd" clip-rule="evenodd" d="M20.7714 0C21.3236 0 21.7714 0.447716 21.7714 1V23C21.7714 23.5523 21.3236 24 20.7714 24H18.6337C18.0814 24 17.6337 23.5523 17.6337 23V13.7078L0.943693 23.5551C0.610382 23.7517 0.189615 23.5115 0.189615 23.1245L0.189613 0.866501C0.189613 0.481508 0.606459 0.240959 0.939791 0.433592L17.6337 10.081V1C17.6337 0.447715 18.0814 0 18.6337 0H20.7714Z"/>
</mask>
<path fill-rule="evenodd" clip-rule="evenodd" d="M20.7714 0C21.3236 0 21.7714 0.447716 21.7714 1V23C21.7714 23.5523 21.3236 24 20.7714 24H18.6337C18.0814 24 17.6337 23.5523 17.6337 23V13.7078L0.943693 23.5551C0.610382 23.7517 0.189615 23.5115 0.189615 23.1245L0.189613 0.866501C0.189613 0.481508 0.606459 0.240959 0.939791 0.433592L17.6337 10.081V1C17.6337 0.447715 18.0814 0 18.6337 0H20.7714Z" fill="white"/>
<path d="M17.6337 13.7078L17.1255 12.8465L18.6337 11.9567V13.7078H17.6337ZM0.943693 23.5551L0.435534 22.6938H0.435535L0.943693 23.5551ZM0.189615 23.1245H1.18962H0.189615ZM0.189613 0.866501L-0.810387 0.866501V0.866501H0.189613ZM0.939791 0.433592L0.439434 1.29941V1.29941L0.939791 0.433592ZM17.6337 10.081H18.6337V11.8138L17.1333 10.9468L17.6337 10.081ZM20.7714 1V1V-1C21.8759 -1 22.7714 -0.104568 22.7714 1H20.7714ZM20.7714 23V1H22.7714V23H20.7714ZM20.7714 23H20.7714H22.7714C22.7714 24.1046 21.8759 25 20.7714 25V23ZM18.6337 23H20.7714V25H18.6337V23ZM18.6337 23V25C17.5291 25 16.6337 24.1046 16.6337 23H18.6337ZM18.6337 13.7078V23H16.6337V13.7078H18.6337ZM0.435535 22.6938L17.1255 12.8465L18.1418 14.569L1.45185 24.4163L0.435535 22.6938ZM1.18962 23.1245C1.18962 22.7375 0.768848 22.4972 0.435534 22.6938L1.45185 24.4163C0.451916 25.0063 -0.810385 24.2855 -0.810385 23.1245H1.18962ZM1.18961 0.866501L1.18962 23.1245H-0.810385L-0.810387 0.866501L1.18961 0.866501ZM0.439434 1.29941C0.772766 1.49204 1.18961 1.2515 1.18961 0.866501H-0.810387C-0.810387 -0.288479 0.440151 -1.01013 1.44015 -0.432227L0.439434 1.29941ZM17.1333 10.9468L0.439434 1.29941L1.44015 -0.432228L18.134 9.21513L17.1333 10.9468ZM18.6337 1V10.081H16.6337V1H18.6337ZM18.6337 1H16.6337C16.6337 -0.104569 17.5291 -1 18.6337 -1V1ZM20.7714 1H18.6337V-1H20.7714V1Z" fill="white" mask="url(#path-1-inside-1_64_70)"/>
</svg>
