<svg width="28" height="29" viewBox="0 0 28 29" fill="none" xmlns="http://www.w3.org/2000/svg">
<g filter="url(#filter0_d_64_176)">
<path d="M9.28229 15.1775C9.26682 15.1941 9.25014 15.2123 9.23219 15.2318C9.01314 15.4703 8.60468 15.9149 7.89641 16.3248C7.13477 16.7656 5.99739 17.1802 4.3616 17.169L4.34985 18.8845C6.30149 18.8979 7.73836 18.3984 8.7557 17.8096C9.69496 17.2661 10.2522 16.658 10.4892 16.3994C10.5074 16.3795 10.5243 16.3611 10.5387 16.3455C10.7055 16.1662 10.8717 15.9889 11.04 15.8094C12.2157 14.5556 13.4924 13.1939 15.7396 10.2772C17.3659 8.16624 19.6012 7.68752 20.1113 7.67476H20.6822L19.3531 9.00389C19.1293 9.34759 19.1682 9.81241 19.4698 10.114C19.7522 10.3964 20.1777 10.4485 20.5129 10.2702L23.3596 7.42352C23.6946 7.08854 23.6946 6.54544 23.3596 6.21046L20.6266 3.4775C20.2898 3.29184 19.8577 3.34184 19.572 3.62748C19.2747 3.92485 19.2327 4.38091 19.4461 4.72308L20.6822 5.95922L20.0947 5.95922L20.087 5.95936C19.1513 5.97607 16.3796 6.63559 14.3806 9.23018C12.1842 12.0811 10.9526 13.3946 9.78739 14.6372L9.78587 14.6389C9.61754 14.8184 9.45058 14.9964 9.28229 15.1775Z" fill="white"/>
<path d="M9.23243 8.7683C9.25035 8.7878 9.26699 8.80592 9.28244 8.82254C9.45073 9.00356 9.61769 9.18162 9.78602 9.36115L9.78718 9.36239C10.1975 9.8 10.6164 10.2468 11.0825 10.766L12.3774 9.64034C11.8925 9.09962 11.4601 8.63843 11.0405 8.19094C10.8722 8.01143 10.7056 7.83381 10.5389 7.65446C10.5244 7.63891 10.5081 7.62109 10.4899 7.60119C10.2529 7.34259 9.69511 6.73394 8.75585 6.19037C7.73851 5.60162 6.30164 5.10213 4.35 5.1155L4.36175 6.831C5.99754 6.81979 7.13492 7.23442 7.89656 7.67519C8.60482 8.08508 9.01338 8.52983 9.23243 8.7683Z" fill="white"/>
<path d="M14.3808 14.7698C14.2863 14.6472 14.1936 14.5275 14.1027 14.4104L15.3993 13.2833C15.5103 13.4258 15.6237 13.5722 15.7397 13.7228C17.3661 15.8338 19.6014 16.3125 20.1115 16.3252H20.6824L19.3533 14.9961C19.1294 14.6524 19.1683 14.1876 19.4699 13.886C19.7523 13.6036 20.1779 13.5515 20.513 13.7298L23.3598 16.5765C23.6947 16.9115 23.6947 17.4546 23.3598 17.7895L20.6268 20.5225C20.2899 20.7082 19.8578 20.6582 19.5722 20.3725C19.2748 20.0751 19.2328 19.6191 19.4462 19.2769L20.6824 18.0408H20.0949L20.0872 18.0406C19.1514 18.0239 16.3797 17.3644 14.3808 14.7698Z" fill="white"/>
</g>
<defs>
<filter id="filter0_d_64_176" x="-2.01953" y="0" width="32" height="32" filterUnits="userSpaceOnUse" color-interpolation-filters="sRGB">
<feFlood flood-opacity="0" result="BackgroundImageFix"/>
<feColorMatrix in="SourceAlpha" type="matrix" values="0 0 0 0 0 0 0 0 0 0 0 0 0 0 0 0 0 0 127 0" result="hardAlpha"/>
<feOffset dy="4"/>
<feGaussianBlur stdDeviation="2"/>
<feComposite in2="hardAlpha" operator="out"/>
<feColorMatrix type="matrix" values="0 0 0 0 0 0 0 0 0 0 0 0 0 0 0 0 0 0 0.25 0"/>
<feBlend mode="normal" in2="BackgroundImageFix" result="effect1_dropShadow_64_176"/>
<feBlend mode="normal" in="SourceGraphic" in2="effect1_dropShadow_64_176" result="shape"/>
</filter>
</defs>
</svg>
